<?xml version="1.0" standalone="no"?>
<!DOCTYPE svg PUBLIC "-//W3C//DTD SVG 20010904//EN"
 "http://www.w3.org/TR/2001/REC-SVG-20010904/DTD/svg10.dtd">
<svg version="1.0" xmlns="http://www.w3.org/2000/svg"
 width="801.000000pt" height="801.000000pt" viewBox="0 0 801.000000 801.000000"
 preserveAspectRatio="xMidYMid meet">
<metadata>
Created by potrace 1.11, written by Peter Selinger 2001-2013
</metadata>
<g transform="translate(0.000000,801.000000) scale(0.100000,-0.100000)"
fill="#000000" stroke="none">
<path d="M3715 7999 c-978 -78 -1854 -480 -2539 -1165 -630 -629 -1029 -1438
-1140 -2312 -45 -345 -46 -657 -5 -997 177 -1481 1175 -2748 2580 -3273 714
-267 1504 -321 2259 -156 929 204 1764 744 2341 1514 375 499 629 1084 734
1685 47 275 50 314 50 715 0 403 -4 459 -56 738 -244 1330 -1187 2473 -2459
2980 -547 218 -1191 317 -1765 271z m1245 -2231 c0 -7 -79 -384 -175 -838 -96
-455 -175 -830 -175 -833 0 -4 -140 -7 -310 -7 l-311 0 6 33 c4 17 70 334 149
702 l142 670 -170 3 c-93 1 -170 1 -172 -1 -3 -3 -364 -1699 -364 -1711 0 -3
-153 -6 -340 -6 -187 0 -340 1 -340 3 0 2 81 385 180 852 99 467 180 852 180
857 0 4 -107 8 -237 8 l-238 -1 -545 -533 c-300 -294 -545 -538 -545 -543 0
-6 517 -512 1150 -1126 l1149 -1116 81 77 c44 43 565 547 1158 1121 l1079
1044 -339 330 c-186 182 -422 414 -525 516 l-187 186 33 153 c19 84 35 154 37
156 4 4 407 -389 1141 -1110 l237 -233 -1352 -1309 c-744 -720 -1355 -1311
-1359 -1313 -7 -5 -2703 2611 -2703 2623 0 4 311 311 690 683 l690 675 1143 0
c880 0 1142 -3 1142 -12z"/>
</g>
</svg>
