<?xml version="1.0" encoding="UTF-8" standalone="no"?><!DOCTYPE svg PUBLIC "-//W3C//DTD SVG 1.1//EN" "http://www.w3.org/Graphics/SVG/1.1/DTD/svg11.dtd"><svg width="100%" height="100%" viewBox="0 0 369 467" version="1.1" xmlns="http://www.w3.org/2000/svg" xmlns:xlink="http://www.w3.org/1999/xlink" xml:space="preserve" xmlns:serif="http://www.serif.com/" style="fill-rule:evenodd;clip-rule:evenodd;stroke-linejoin:round;stroke-miterlimit:2;"><rect id="Combo-White" serif:id="Combo White" x="0" y="0" width="368.175" height="466.05" style="fill:none;"/><clipPath id="_clip1"><rect x="0" y="0" width="368.175" height="466.05"/></clipPath><g clip-path="url(#_clip1)"><g><path d="M60.426,466.082c-5.595,0 -10.224,-0.71 -13.889,-2.131l0,-17.703c3.979,1.242 7.517,1.862 10.613,1.862c8.317,0 13.814,-6.364 16.491,-19.094l13.47,-63.402l-16.671,0l1.952,-9.872l18.062,-7.09l1.952,-8.571c2.737,-12.281 6.911,-21.016 12.52,-26.207c5.624,-5.175 13.589,-7.763 23.895,-7.763c7.135,0 23.973,3.421 29.941,6.084l-5.699,16.379c-4.592,-1.735 -19.096,-4.693 -22.94,-4.693c-4.278,0 -7.711,1.339 -10.299,4.017c-2.573,2.662 -4.54,7.037 -5.901,13.125l-1.683,8.01l53.749,0l-3.455,16.581l-53.726,0l-14.031,66.297c-2.483,11.727 -6.552,20.358 -12.206,25.892c-5.639,5.52 -13.021,8.279 -22.145,8.279Zm105.63,-117.049l-21.876,102.986l-21.966,0l21.966,-102.986l21.876,0Zm50.029,14.898c-5.954,0 -11.555,2.67 -16.806,8.01c-5.25,5.34 -9.019,12.386 -11.308,21.136l2.693,0c11.667,0 20.791,-1.66 27.373,-4.981c6.581,-3.321 9.872,-8.025 9.872,-14.113c0,-3.156 -0.995,-5.624 -2.984,-7.404c-1.975,-1.765 -4.921,-2.648 -8.84,-2.648Zm-14.158,89.95c-12.221,0 -21.764,-3.44 -28.63,-10.321c-6.865,-6.895 -10.298,-16.521 -10.298,-28.876c0,-12.296 2.408,-23.738 7.225,-34.329c4.816,-10.575 11.338,-18.75 19.565,-24.523c8.226,-5.774 17.426,-8.661 27.597,-8.661c9.992,0 17.77,2.251 23.335,6.753c5.549,4.503 8.324,10.882 8.324,19.139c0,11.294 -5.168,20.119 -15.504,26.476c-10.336,6.372 -25.062,9.558 -44.179,9.558l-4.016,0l-0.179,2.894l0,2.693c0,6.896 1.757,12.295 5.272,16.199c3.5,3.919 8.728,5.879 15.684,5.879c4.472,0 8.915,-0.591 13.327,-1.773c4.398,-1.181 9.611,-3.201 15.639,-6.058l0,17.412c-5.968,2.737 -11.45,4.674 -16.446,5.811c-4.996,1.151 -10.568,1.727 -16.716,1.727Zm109.641,-106.71c3.844,0 7.194,0.374 10.051,1.122l-4.756,20.395c-3.351,-0.868 -6.515,-1.301 -9.491,-1.301c-7.823,0 -14.809,3.5 -20.956,10.5c-6.148,7.016 -10.434,16.207 -12.857,27.575l-9.872,46.557l-21.966,0l21.966,-102.986l17.142,0l-1.952,19.094l0.83,0c5.161,-7.449 10.314,-12.804 15.459,-16.065c5.161,-3.261 10.628,-4.891 16.402,-4.891Z" style="fill:#fff;fill-rule:nonzero;"/><g><path d="M249.617,0l-41.99,0l-24.203,114.247l41.99,0l24.203,-114.247Z" style="fill:#fff;"/><path d="M184.078,0.348l-46.012,0l-28.576,134.889l46.012,0l28.576,-134.889Z" style="fill:#fff;"/><path d="M248.423,0l-3.987,18.82l-142.773,0l-74.703,73.123l156.835,152.318l157.379,-152.329l-71.334,-69.825l4.621,-21.811l93.696,91.71l-184.384,178.468l-183.773,-178.479l93.983,-91.995l154.44,0Z" style="fill:#fff;fill-rule:nonzero;"/></g></g></g></svg>