<?xml version="1.0" encoding="UTF-8" standalone="no"?><!DOCTYPE svg PUBLIC "-//W3C//DTD SVG 1.1//EN" "http://www.w3.org/Graphics/SVG/1.1/DTD/svg11.dtd"><svg width="100%" height="100%" viewBox="0 0 417 243" version="1.1" xmlns="http://www.w3.org/2000/svg" xmlns:xlink="http://www.w3.org/1999/xlink" xml:space="preserve" xmlns:serif="http://www.serif.com/" style="fill-rule:evenodd;clip-rule:evenodd;stroke-linejoin:round;stroke-miterlimit:2;"><rect id="Text-White" serif:id="Text White" x="0" y="0" width="416.4" height="242.175" style="fill:none;"/><clipPath id="_clip1"><rect x="0" y="0" width="416.4" height="242.175"/></clipPath><g clip-path="url(#_clip1)"><path d="M21.023,242.142c-8.468,0 -15.476,-1.075 -21.023,-3.226l0,-26.796c6.023,1.879 11.377,2.819 16.064,2.819c12.589,0 20.909,-9.634 24.962,-28.902l20.389,-95.97l-25.234,0l2.955,-14.943l27.339,-10.732l2.955,-12.973c4.143,-18.589 10.46,-31.812 18.951,-39.668c8.513,-7.834 20.569,-11.751 36.169,-11.751c10.8,0 36.286,5.179 45.32,9.209l-8.626,24.792c-6.951,-2.626 -28.905,-7.103 -34.724,-7.103c-6.475,0 -11.671,2.026 -15.588,6.079c-3.895,4.03 -6.872,10.653 -8.932,19.868l-2.548,12.124l81.358,0l-5.23,25.098l-81.324,0l-21.238,100.351c-3.758,17.751 -9.916,30.815 -18.475,39.192c-8.536,8.355 -19.709,12.532 -33.52,12.532Zm159.888,-177.173l-33.113,155.886l-33.249,0l33.249,-155.886l33.113,0Zm75.727,22.551c-9.012,0 -17.491,4.042 -25.438,12.125c-7.947,8.083 -13.653,18.747 -17.117,31.992l4.076,0c17.66,0 31.471,-2.513 41.433,-7.54c9.963,-5.026 14.944,-12.147 14.944,-21.362c0,-4.777 -1.506,-8.513 -4.517,-11.207c-2.989,-2.672 -7.449,-4.008 -13.381,-4.008Zm-21.43,136.154c-18.498,0 -32.944,-5.207 -43.336,-15.622c-10.392,-10.438 -15.589,-25.008 -15.589,-43.71c0,-18.611 3.646,-35.931 10.936,-51.962c7.291,-16.007 17.162,-28.38 29.615,-37.12c12.453,-8.74 26.377,-13.109 41.773,-13.109c15.125,0 26.898,3.407 35.321,10.222c8.4,6.815 12.6,16.472 12.6,28.97c0,17.094 -7.823,30.452 -23.468,40.075c-15.645,9.645 -37.935,14.468 -66.871,14.468l-6.079,0l-0.272,4.381l0,4.075c0,10.438 2.66,18.612 7.981,24.521c5.298,5.932 13.211,8.898 23.74,8.898c6.769,0 13.494,-0.894 20.173,-2.683c6.657,-1.789 14.547,-4.845 23.672,-9.17l0,26.355c-9.034,4.143 -17.332,7.075 -24.895,8.796c-7.562,1.743 -15.996,2.615 -25.301,2.615Zm165.958,-161.523c5.819,0 10.891,0.566 15.215,1.698l-7.2,30.871c-5.071,-1.313 -9.86,-1.97 -14.365,-1.97c-11.842,0 -22.415,5.298 -31.721,15.895c-9.306,10.618 -15.792,24.532 -19.46,41.739l-14.944,70.471l-33.248,0l33.248,-155.886l25.947,0l-2.954,28.902l1.256,0c7.812,-11.275 15.612,-19.381 23.4,-24.317c7.811,-4.936 16.087,-7.403 24.826,-7.403Z" style="fill:#fff;fill-rule:nonzero;"/></g></svg>